PathFileType	4	(X/Y/Z)	A:\Common\BMMB\PROJECTS\STRATO\DataSTRATO\DataSTRATO\0021~016 ID\0021~aa~ID 016\Standing_STRATO_ID_16.trc
DataRate	CameraRate	NumFrames	NumMarkers	Units	OrigDataRate	OrigDataStartFrame	OrigNumFrames
250.00	250.00	5	22	mm	250.00	828	3281
Frame#	Time	r.should			l.should			c7			r.asis			l.asis			sacrum			r.bar1			l.bar1			r.knee1			l.knee1			r.bar2			r.mall			l.bar2			l.mall			r.met			r.heel			l.heel			l.met			r.mallm			l.mallm			r.kneem			l.kneem			
		X1	Y1	Z1	X2	Y2	Z2	X3	Y3	Z3	X4	Y4	Z4	X5	Y5	Z5	X6	Y6	Z6	X7	Y7	Z7	X8	Y8	Z8	X9	Y9	Z9	X10	Y10	Z10	X11	Y11	Z11	X12	Y12	Z12	X13	Y13	Z13	X14	Y14	Z14	X15	Y15	Z15	X16	Y16	Z16	X17	Y17	Z17	X18	Y18	Z18	X19	Y19	Z19	X20	Y20	Z20	X21	Y21	Z21	X22	Y22	Z22	

827	3.308000	336.441338	1332.573175	299.730420	38.692415	1347.708941	295.575261	196.793586	1389.602542	382.249981	295.102537	890.059590	149.885893	54.787040	877.632737	169.121742	191.647038	952.880383	383.024633	390.862226	815.586030	236.676738	-12.194843	791.935563	267.574787	350.781113	465.487331	279.792249	12.966370	468.079716	353.688478	337.097913	414.111137	275.137275	328.283429	70.467554	304.944277	10.118089	424.029201	363.421798	48.999086	53.007275	337.525666	295.220852	36.728781	163.577110	286.437333	37.109151	362.747520	96.058324	32.060385	401.274681	75.628958	36.127202	196.421891	243.568927	78.550868	299.289405	129.613221	79.510637	329.894274	207.304388	440.524757	322.012573	160.075814	445.652157	361.523718	
828	3.312000	336.449862	1332.569599	299.722642	38.690325	1347.711086	295.606971	196.789742	1389.606953	382.245511	295.099854	890.058398	149.848178	54.788291	877.623558	169.117063	191.642582	952.881694	383.010030	390.856564	815.614879	236.647084	-12.178149	791.953206	267.534137	350.771606	465.491146	279.774755	12.956437	468.073517	353.675932	337.086856	414.127082	275.118738	328.266352	70.472419	304.941803	10.190791	424.051344	363.337755	49.078971	53.654119	336.479306	295.193970	36.731601	163.542673	286.438704	37.138864	362.762988	96.048668	32.073457	401.293278	75.631022	36.136989	196.408510	243.571058	78.538537	299.251974	129.616603	79.557762	329.898208	207.303792	440.521568	321.997523	160.069346	445.662767	361.492455	
829	3.316000	336.455345	1332.559586	299.734145	38.684577	1347.711921	295.648277	196.797013	1389.614582	382.256776	295.088381	890.062153	149.832338	54.780181	877.632320	169.101417	191.636354	952.879429	382.970929	390.840679	815.635681	236.615181	-12.196445	791.949570	267.506659	350.758195	465.504795	279.743522	12.924638	468.068749	353.682578	337.077320	414.144248	275.115311	328.257114	70.488967	304.944932	10.207213	424.042702	363.315612	48.981272	52.857701	337.788641	295.191467	36.740325	163.531542	286.447793	37.125815	362.739921	96.044138	32.089874	401.307732	75.641233	36.151525	196.412936	243.572190	78.537330	299.248993	129.610658	79.552211	329.908848	207.299605	440.518111	321.978569	160.071820	445.674181	361.471593	
830	3.320000	336.449742	1332.558274	299.709827	38.688589	1347.722411	295.631260	196.814358	1389.623284	382.262796	295.064598	890.077829	149.841279	54.775234	877.625108	169.111103	191.648170	952.881336	382.954210	390.828073	815.648913	236.603558	-12.214795	791.939020	267.496258	350.750625	465.514719	279.732466	12.923475	468.077153	353.699535	337.068439	414.160430	275.096893	328.258991	70.509225	304.944098	10.221645	424.053609	363.293141	49.000543	53.151917	337.362170	295.203894	36.744919	163.550600	286.465466	37.109107	362.724900	96.042283	32.109343	401.304752	75.661249	36.172882	196.442127	243.558615	78.542367	299.262553	129.603952	79.545803	329.883456	207.289204	440.524429	321.951836	160.074472	445.683360	361.465245	
831	3.324000	336.449325	1332.543612	299.710512	38.696796	1347.731471	295.600563	196.816087	1389.617682	382.230431	295.049787	890.083313	149.827167	54.752078	877.642870	169.052213	191.637963	952.889204	382.950187	390.826881	815.638065	236.582875	-12.216070	791.940510	267.491877	350.744665	465.529591	279.732347	12.922833	468.077421	353.722632	337.062895	414.171010	275.067300	328.259945	70.509657	304.943353	10.219293	424.059927	363.291174	49.131155	54.222714	335.617185	295.187563	36.741659	163.570330	286.463022	37.116639	362.722278	96.026093	32.100752	401.282519	75.686343	36.198854	196.491018	243.548617	78.555584	299.257129	129.609734	79.566754	329.888403	207.287192	440.537751	321.928918	160.072163	445.682108	361.462682	
